<svg class="mx-auto h-auto w-full min-w-[1443px] opacity-0 delay-150 duration-150 text-foreground !opacity-10" width="1443" height="222" viewBox="0 0 1443 222" fill="none" xmlns="http://www.w3.org/2000/svg"><path d="M1442.81 86.7656H1406.1V173.718L1320.54 88.1123V185.241H1319.34V88.1143L1235.11 172.39V209.711L1149.56 124.105V221.234H1148.35V124.108L1062.8 209.711V172.391L978.577 88.1123V185.241H977.37V88.1113L893.131 172.396V209.711L807.581 124.105V221.234H806.371V124.108L720.819 209.711V172.551L636.436 88.1123V185.241H635.227V88.1143L551.001 172.39V209.711L465.451 124.105V221.234H464.242V124.108L378.69 209.711V172.391L294.466 88.1123V185.241H293.257V88.1113L209.022 172.396V209.711L123.472 124.105V221.234H122.263V124.108L36.7109 209.711V122.759H0V0H245.734V11.2236L256.951 0H258.661L245.734 12.9346V122.759H209.022V170.686L293.257 86.4014V0H294.466V86.4014L378.69 170.68V122.759H341.979V12.9277L329.06 0H330.77L341.979 11.2168V0H587.714V11.2178L598.925 0H600.635L587.714 12.9287V122.759H551.001V170.679L635.227 86.4033V0H636.439V86.4033L720.776 170.796V122.759H684.109V13.0879L671.03 0H672.74L684.109 11.377V0H929.842V11.2236L941.059 0H942.771L929.842 12.9346V122.759H893.131V170.686L977.37 86.4014V0H978.577V86.4014L1062.8 170.68V122.759H1026.09V12.9277L1013.17 0H1014.88L1026.09 11.2168V0H1271.83V11.2178L1283.04 0H1284.75L1271.83 12.9287V122.759H1235.11V170.679L1319.34 86.4033V0H1320.54V86.4033L1404.88 170.796V49.7793L1355.13 0H1356.85L1406.1 49.2793V85.5557H1441.59V0H1442.81V86.7656ZM37.9209 85.7725V206.79L122.263 122.396V1.38086L37.9209 85.7725ZM123.476 122.396L207.812 206.79V173.607L207.702 173.718V86.7656H170.991V48.9277L123.476 1.38086V122.396ZM416.729 48.9209V86.7656H380.017V173.718L379.899 173.602V206.79L464.242 122.396V1.38086L416.729 48.9209ZM465.455 122.396L549.791 206.79V173.601L549.675 173.718V86.7656H512.964V48.9209L465.455 1.38086V122.396ZM758.698 49.082V86.7656H722.029V206.79L806.371 122.396V1.38086L758.698 49.082ZM807.585 122.396L891.923 206.79V173.607L891.809 173.718V86.7656H855.097V48.9277L807.585 1.38086V122.396ZM1100.83 48.9219V86.7656H1064.12V173.718L1064.01 173.602V206.79L1148.35 122.396V1.38086L1100.83 48.9219ZM1149.56 122.396L1233.9 206.79V173.601L1233.78 173.718V86.7656H1197.07V48.9209L1149.56 1.38086V122.396ZM1.20996 121.55H36.7109V85.2715L121.409 0.523438H1.20996V121.55ZM208.912 49.7793V85.1621L209.022 85.2715V121.55H244.524V14.1445L208.912 49.7793ZM343.189 121.55H378.69V85.2715L378.807 85.1553V49.7793L343.189 14.1377V121.55ZM550.884 49.7793V85.1553L551.001 85.2715V121.55H586.504V14.1387L550.884 49.7793ZM685.319 121.55H720.776V49.7793L685.319 14.2988V121.55ZM893.023 49.7793V85.1621L893.131 85.2715V121.55H928.635V14.1445L893.023 49.7793ZM1027.3 121.55H1062.8V85.2715L1062.92 85.1553V49.7793L1027.3 14.1377V121.55ZM1234.99 49.7793V85.1553L1235.11 85.2715V121.55H1270.61V14.1387L1234.99 49.7793ZM172.2 85.5557H207.596L172.2 50.1377V85.5557ZM380.116 85.5557H415.519V50.1328L380.116 85.5557ZM514.174 85.5557H549.574L514.174 50.1318V85.5557ZM722.246 85.5557H757.488V50.293L722.246 85.5557ZM856.312 85.5557H891.701L856.312 50.1377V85.5557ZM1064.23 85.5557H1099.63V50.1328L1064.23 85.5557ZM1198.28 85.5557H1233.69L1198.28 50.1318V85.5557ZM685.319 12.5879L721.986 49.2793V84.1055L757.488 48.5811V0.523438H685.319V12.5879ZM172.2 48.4268L207.702 83.9512V49.2783L244.524 12.4346V0.523438H172.2V48.4268ZM856.312 48.4268L891.809 83.9512V49.2783L928.635 12.4346V0.523438H856.312V48.4268ZM343.189 12.4277L380.017 49.2793V83.9453L415.519 48.4209V0.523438H343.189V12.4277ZM514.174 48.4209L549.675 83.9453V49.2783L586.504 12.4277V0.523438H514.174V48.4209ZM1027.3 12.4277L1064.12 49.2793V83.9453L1099.63 48.4209V0.523438H1027.3V12.4277ZM1198.28 48.4209L1233.78 83.9453V49.2783L1270.61 12.4277V0.523438H1198.28V48.4209ZM758.698 47.3711L805.519 0.523438H758.698V47.3711ZM170.991 47.2168V0.523438H124.329L170.991 47.2168ZM855.097 47.2168V0.523438H808.438L855.097 47.2168ZM416.729 47.2109L463.389 0.523438H416.729V47.2109ZM1100.83 47.2109L1147.5 0.523438H1100.83V47.2109ZM512.964 47.21V0.523438H466.309L512.964 47.21ZM1197.07 47.21V0.523438H1150.42L1197.07 47.21Z" fill="currentColor"></path></svg>